<svg width="114" height="125" viewBox="0 0 114 125" fill="none" xmlns="http://www.w3.org/2000/svg">
<path d="M78.5581 64.6218C79.7919 63.5159 79.8955 61.6193 78.7897 60.3855C77.6838 59.1517 75.7871 59.048 74.5534 60.1539L78.5581 64.6218ZM74.5534 13.8461C75.7871 14.952 77.6838 14.8483 78.7897 13.6145C79.8955 12.3807 79.7919 10.4841 78.5581 9.37819L74.5534 13.8461ZM68.1591 55.6215C69.4758 54.6158 69.7279 52.7331 68.7221 51.4164C67.7164 50.0997 65.8337 49.8477 64.517 50.8534L68.1591 55.6215ZM37.3039 32.2993C37.7796 30.7122 36.8787 29.04 35.2916 28.5643C33.7045 28.0886 32.0322 28.9896 31.5565 30.5767L37.3039 32.2993ZM46.1108 44.8618C47.2818 46.0339 49.1813 46.0347 50.3534 44.8637C51.5255 43.6927 51.5264 41.7932 50.3553 40.6211L46.1108 44.8618ZM57.52 33.3137C58.655 34.5207 60.5536 34.5791 61.7606 33.4441C62.9677 32.3091 63.0261 30.4105 61.891 29.2035L57.52 33.3137ZM74.5534 60.1539C69.0817 65.0583 61.902 68 53.9693 68V74C63.4246 74 72.0195 70.4826 78.5581 64.6218L74.5534 60.1539ZM53.9693 68C36.8963 68 23 54.095 23 37H17C17 57.4036 33.5775 74 53.9693 74V68ZM23 37C23 19.905 36.8963 6 53.9693 6V0C33.5775 0 17 16.5964 17 37H23ZM53.9693 6C61.902 6 69.0817 8.9417 74.5534 13.8461L78.5581 9.37819C72.0195 3.5174 63.4246 0 53.9693 0V6ZM64.517 50.8534C61.5989 53.0823 57.9289 54.4538 53.9693 54.4538V60.4538C59.3311 60.4538 64.2654 58.5958 68.1591 55.6215L64.517 50.8534ZM53.9693 54.4538C44.3441 54.4538 36.6236 46.6578 36.6236 37.0897H30.6236C30.6236 49.9491 41.0081 60.4538 53.9693 60.4538V54.4538ZM36.6236 37.0897C36.6236 35.3921 36.8543 33.7994 37.3039 32.2993L31.5565 30.5767C30.9306 32.665 30.6236 34.8401 30.6236 37.0897H36.6236ZM50.3553 40.6211C49.4238 39.6887 48.8131 38.3672 48.8131 37H42.8131C42.8131 40.1183 44.1742 42.9234 46.1108 44.8618L50.3553 40.6211ZM48.8131 37C48.8131 34.1688 51.1473 31.8364 53.9693 31.8364V25.8364C47.8284 25.8364 42.8131 30.8602 42.8131 37H48.8131ZM53.9693 31.8364C55.407 31.8364 56.6696 32.4093 57.52 33.3137L61.891 29.2035C59.8733 27.0577 57.013 25.8364 53.9693 25.8364V31.8364Z" fill="black"/>
<path d="M78.5581 64.6218C79.7919 63.5159 79.8955 61.6193 78.7897 60.3855C77.6838 59.1517 75.7871 59.048 74.5534 60.1539L78.5581 64.6218ZM74.5534 13.8461C75.7871 14.952 77.6838 14.8483 78.7897 13.6145C79.8955 12.3807 79.7919 10.4841 78.5581 9.37819L74.5534 13.8461ZM68.1591 55.6215C69.4758 54.6158 69.7279 52.7331 68.7221 51.4164C67.7164 50.0997 65.8337 49.8477 64.517 50.8534L68.1591 55.6215ZM37.3039 32.2993C37.7796 30.7122 36.8787 29.04 35.2916 28.5643C33.7045 28.0886 32.0322 28.9896 31.5565 30.5767L37.3039 32.2993ZM46.1108 44.8618C47.2818 46.0339 49.1813 46.0347 50.3534 44.8637C51.5255 43.6927 51.5264 41.7932 50.3553 40.6211L46.1108 44.8618ZM57.52 33.3137C58.655 34.5207 60.5536 34.5791 61.7606 33.4441C62.9677 32.3091 63.0261 30.4105 61.891 29.2035L57.52 33.3137ZM74.5534 60.1539C69.0817 65.0583 61.902 68 53.9693 68V74C63.4246 74 72.0195 70.4826 78.5581 64.6218L74.5534 60.1539ZM53.9693 68C36.8963 68 23 54.095 23 37H17C17 57.4036 33.5775 74 53.9693 74V68ZM23 37C23 19.905 36.8963 6 53.9693 6V0C33.5775 0 17 16.5964 17 37H23ZM53.9693 6C61.902 6 69.0817 8.9417 74.5534 13.8461L78.5581 9.37819C72.0195 3.5174 63.4246 0 53.9693 0V6ZM64.517 50.8534C61.5989 53.0823 57.9289 54.4538 53.9693 54.4538V60.4538C59.3311 60.4538 64.2654 58.5958 68.1591 55.6215L64.517 50.8534ZM53.9693 54.4538C44.3441 54.4538 36.6236 46.6578 36.6236 37.0897H30.6236C30.6236 49.9491 41.0081 60.4538 53.9693 60.4538V54.4538ZM36.6236 37.0897C36.6236 35.3921 36.8543 33.7994 37.3039 32.2993L31.5565 30.5767C30.9306 32.665 30.6236 34.8401 30.6236 37.0897H36.6236ZM50.3553 40.6211C49.4238 39.6887 48.8131 38.3672 48.8131 37H42.8131C42.8131 40.1183 44.1742 42.9234 46.1108 44.8618L50.3553 40.6211ZM48.8131 37C48.8131 34.1688 51.1473 31.8364 53.9693 31.8364V25.8364C47.8284 25.8364 42.8131 30.8602 42.8131 37H48.8131ZM53.9693 31.8364C55.407 31.8364 56.6696 32.4093 57.52 33.3137L61.891 29.2035C59.8733 27.0577 57.013 25.8364 53.9693 25.8364V31.8364Z" fill="url(#paint0_linear)"/>
<path d="M8.94475 117.27C7.64875 117.27 6.45175 116.982 5.35375 116.406C4.25575 115.83 3.37375 115.002 2.70775 113.922C2.05975 112.842 1.73575 111.573 1.73575 110.115C1.73575 108.657 2.05975 107.388 2.70775 106.308C3.37375 105.228 4.25575 104.4 5.35375 103.824C6.45175 103.248 7.64875 102.96 8.94475 102.96C9.89875 102.96 10.7177 103.086 11.4017 103.338C12.1037 103.572 12.7517 103.878 13.3457 104.256C13.7057 104.49 13.8857 104.805 13.8857 105.201C13.8857 105.471 13.7777 105.723 13.5617 105.957C13.3637 106.173 13.1297 106.281 12.8597 106.281C12.6617 106.281 12.4637 106.227 12.2657 106.119C11.6717 105.813 11.1587 105.597 10.7267 105.471C10.3127 105.327 9.79075 105.255 9.16075 105.255C7.61275 105.255 6.39775 105.705 5.51575 106.605C4.63375 107.487 4.19275 108.657 4.19275 110.115C4.19275 111.573 4.63375 112.752 5.51575 113.652C6.39775 114.534 7.61275 114.975 9.16075 114.975C9.79075 114.975 10.3127 114.912 10.7267 114.786C11.1587 114.642 11.6717 114.417 12.2657 114.111C12.4637 114.003 12.6617 113.949 12.8597 113.949C13.1297 113.949 13.3637 114.066 13.5617 114.3C13.7777 114.516 13.8857 114.759 13.8857 115.029C13.8857 115.425 13.7057 115.74 13.3457 115.974C12.7517 116.352 12.1037 116.667 11.4017 116.919C10.7177 117.153 9.89875 117.27 8.94475 117.27ZM23.7488 117.27C22.3628 117.27 21.1478 116.973 20.1038 116.379C19.0598 115.785 18.2498 114.948 17.6738 113.868C17.1158 112.77 16.8368 111.519 16.8368 110.115C16.8368 108.711 17.1158 107.469 17.6738 106.389C18.2498 105.291 19.0598 104.445 20.1038 103.851C21.1478 103.257 22.3628 102.96 23.7488 102.96C25.1168 102.96 26.3228 103.257 27.3668 103.851C28.4108 104.445 29.2208 105.291 29.7968 106.389C30.3728 107.469 30.6608 108.711 30.6608 110.115C30.6608 111.519 30.3728 112.77 29.7968 113.868C29.2208 114.948 28.4108 115.785 27.3668 116.379C26.3228 116.973 25.1168 117.27 23.7488 117.27ZM23.7488 115.029C24.4868 115.029 25.1888 114.858 25.8548 114.516C26.5388 114.174 27.0968 113.634 27.5288 112.896C27.9788 112.158 28.2038 111.222 28.2038 110.088C28.2038 108.972 27.9788 108.045 27.5288 107.307C27.0968 106.569 26.5388 106.038 25.8548 105.714C25.1888 105.372 24.4868 105.201 23.7488 105.201C22.9928 105.201 22.2728 105.372 21.5888 105.714C20.9228 106.038 20.3738 106.569 19.9418 107.307C19.5098 108.045 19.2938 108.972 19.2938 110.088C19.2938 111.222 19.5098 112.158 19.9418 112.896C20.3738 113.634 20.9228 114.174 21.5888 114.516C22.2728 114.858 22.9928 115.029 23.7488 115.029ZM36.1255 117.135C35.7835 117.135 35.4955 117.018 35.2615 116.784C35.0275 116.55 34.9105 116.262 34.9105 115.92V104.337C34.9105 103.995 35.0275 103.707 35.2615 103.473C35.4955 103.221 35.7835 103.095 36.1255 103.095C36.4675 103.095 36.7555 103.221 36.9895 103.473C37.2415 103.707 37.3675 103.995 37.3675 104.337V105.444C38.0515 104.688 38.7895 104.085 39.5815 103.635C40.3735 103.185 41.3095 102.96 42.3895 102.96C43.3795 102.96 44.2345 103.194 44.9545 103.662C45.6925 104.13 46.2505 104.769 46.6285 105.579C47.0245 106.389 47.2225 107.28 47.2225 108.252V115.92C47.2225 116.262 47.0965 116.55 46.8445 116.784C46.6105 117.018 46.3225 117.135 45.9805 117.135C45.6385 117.135 45.3505 117.018 45.1165 116.784C44.8825 116.55 44.7655 116.262 44.7655 115.92V108.522C44.7655 106.326 43.7755 105.228 41.7955 105.228C40.8955 105.228 40.0855 105.462 39.3655 105.93C38.6635 106.398 37.9975 107.028 37.3675 107.82V115.92C37.3675 116.262 37.2415 116.55 36.9895 116.784C36.7555 117.018 36.4675 117.135 36.1255 117.135ZM56.6092 117.27C53.9812 117.27 52.6672 116.082 52.6672 113.706V105.336H50.7502C50.6062 105.336 50.4802 105.291 50.3722 105.201C50.2822 105.093 50.2372 104.967 50.2372 104.823C50.2372 104.643 50.3182 104.49 50.4802 104.364L54.1522 100.773C54.3142 100.611 54.4672 100.53 54.6112 100.53C54.7552 100.53 54.8722 100.584 54.9622 100.692C55.0702 100.8 55.1242 100.926 55.1242 101.07V103.23H58.1752C58.4812 103.23 58.7332 103.329 58.9312 103.527C59.1292 103.725 59.2282 103.977 59.2282 104.283C59.2282 104.571 59.1292 104.823 58.9312 105.039C58.7332 105.237 58.4812 105.336 58.1752 105.336H55.1242V113.49C55.1242 114.192 55.2862 114.642 55.6102 114.84C55.9522 115.02 56.3752 115.11 56.8792 115.11C57.2392 115.11 57.5992 115.056 57.9592 114.948C58.0312 114.93 58.1032 114.912 58.1752 114.894C58.2652 114.876 58.3732 114.867 58.4992 114.867C58.7512 114.867 58.9762 114.966 59.1742 115.164C59.3722 115.344 59.4712 115.569 59.4712 115.839C59.4712 116.253 59.2642 116.568 58.8502 116.784C58.1482 117.108 57.4012 117.27 56.6092 117.27ZM67.6748 117.27C66.6848 117.27 65.8208 117.036 65.0828 116.568C64.3628 116.1 63.8048 115.461 63.4088 114.651C63.0308 113.841 62.8418 112.95 62.8418 111.978V104.31C62.8418 103.968 62.9588 103.68 63.1928 103.446C63.4448 103.212 63.7418 103.095 64.0838 103.095C64.4258 103.095 64.7138 103.212 64.9478 103.446C65.1818 103.68 65.2988 103.968 65.2988 104.31V111.708C65.2988 113.904 66.2888 115.002 68.2688 115.002C69.1688 115.002 69.9698 114.768 70.6718 114.3C71.3918 113.832 72.0668 113.202 72.6968 112.41V104.31C72.6968 103.968 72.8138 103.68 73.0478 103.446C73.2998 103.212 73.5968 103.095 73.9388 103.095C74.2808 103.095 74.5688 103.212 74.8028 103.446C75.0368 103.68 75.1538 103.968 75.1538 104.31V115.893C75.1538 116.235 75.0368 116.532 74.8028 116.784C74.5688 117.018 74.2808 117.135 73.9388 117.135C73.5968 117.135 73.2998 117.018 73.0478 116.784C72.8138 116.532 72.6968 116.235 72.6968 115.893V114.786C72.0128 115.542 71.2748 116.145 70.4828 116.595C69.6908 117.045 68.7548 117.27 67.6748 117.27ZM81.4009 100.422C81.0229 100.422 80.6989 100.287 80.4289 100.017C80.1589 99.747 80.0239 99.423 80.0239 99.045V98.937C80.0239 98.559 80.1589 98.235 80.4289 97.965C80.6989 97.695 81.0229 97.56 81.4009 97.56H81.5629C81.9409 97.56 82.2649 97.695 82.5349 97.965C82.8049 98.235 82.9399 98.559 82.9399 98.937V99.045C82.9399 99.423 82.8049 99.747 82.5349 100.017C82.2649 100.287 81.9409 100.422 81.5629 100.422H81.4009ZM81.4549 117.135C81.1129 117.135 80.8249 117.018 80.5909 116.784C80.3569 116.55 80.2399 116.262 80.2399 115.92V104.337C80.2399 103.995 80.3569 103.707 80.5909 103.473C80.8249 103.221 81.1129 103.095 81.4549 103.095C81.8149 103.095 82.1119 103.212 82.3459 103.446C82.5799 103.68 82.6969 103.977 82.6969 104.337V115.92C82.6969 116.262 82.5709 116.55 82.3189 116.784C82.0849 117.018 81.7969 117.135 81.4549 117.135ZM92.5256 117.27C89.8976 117.27 88.5836 116.082 88.5836 113.706V105.336H86.6666C86.5226 105.336 86.3966 105.291 86.2886 105.201C86.1986 105.093 86.1536 104.967 86.1536 104.823C86.1536 104.643 86.2346 104.49 86.3966 104.364L90.0686 100.773C90.2306 100.611 90.3836 100.53 90.5276 100.53C90.6716 100.53 90.7886 100.584 90.8786 100.692C90.9866 100.8 91.0406 100.926 91.0406 101.07V103.23H94.0916C94.3976 103.23 94.6496 103.329 94.8476 103.527C95.0456 103.725 95.1446 103.977 95.1446 104.283C95.1446 104.571 95.0456 104.823 94.8476 105.039C94.6496 105.237 94.3976 105.336 94.0916 105.336H91.0406V113.49C91.0406 114.192 91.2026 114.642 91.5266 114.84C91.8686 115.02 92.2916 115.11 92.7956 115.11C93.1556 115.11 93.5156 115.056 93.8756 114.948C93.9476 114.93 94.0196 114.912 94.0916 114.894C94.1816 114.876 94.2896 114.867 94.4156 114.867C94.6676 114.867 94.8926 114.966 95.0906 115.164C95.2886 115.344 95.3876 115.569 95.3876 115.839C95.3876 116.253 95.1806 116.568 94.7666 116.784C94.0646 117.108 93.3176 117.27 92.5256 117.27ZM102.649 123.345C102.325 123.345 102.046 123.228 101.812 122.994C101.596 122.76 101.488 122.481 101.488 122.157C101.488 122.013 101.515 121.869 101.569 121.725L103.324 117.216L98.2483 104.85C98.1763 104.67 98.1403 104.499 98.1403 104.337C98.1403 103.995 98.2573 103.707 98.4913 103.473C98.7253 103.221 99.0133 103.095 99.3553 103.095C99.6073 103.095 99.8323 103.167 100.03 103.311C100.246 103.455 100.399 103.635 100.489 103.851L104.647 114.165L108.886 103.905C109.12 103.365 109.498 103.095 110.02 103.095C110.362 103.095 110.65 103.221 110.884 103.473C111.118 103.707 111.235 103.995 111.235 104.337C111.235 104.499 111.208 104.652 111.154 104.796L103.783 122.508C103.531 123.066 103.153 123.345 102.649 123.345Z" fill="black"/>
<defs>
<linearGradient id="paint0_linear" x1="52.7593" y1="28.8364" x2="52.7593" y2="42.7414" gradientUnits="userSpaceOnUse">
<stop/>
<stop offset="1"/>
</linearGradient>
</defs>
</svg>
